<?xml version="1.0" standalone="no"?>
<!DOCTYPE svg PUBLIC "-//W3C//DTD SVG 20010904//EN"
 "http://www.w3.org/TR/2001/REC-SVG-20010904/DTD/svg10.dtd">
<svg version="1.0" xmlns="http://www.w3.org/2000/svg"
 width="1072.000000pt" height="1072.000000pt" viewBox="0 0 1072.000000 1072.000000"
 preserveAspectRatio="xMidYMid meet">
<metadata>
Created by potrace 1.11, written by Peter Selinger 2001-2013
</metadata>
<g transform="translate(0.000000,1072.000000) scale(0.100000,-0.100000)"
fill="#000000" stroke="none">
<path d="M2649 8286 c-3 -3 -38 -8 -78 -11 -41 -3 -77 -7 -80 -9 -3 -2 -33 -7
-66 -11 -66 -7 -168 -27 -260 -51 -33 -9 -68 -18 -78 -19 -9 -2 -21 -6 -25 -9
-5 -3 -19 -7 -33 -10 -24 -4 -157 -50 -194 -66 -11 -5 -60 -26 -110 -47 -101
-42 -298 -141 -330 -166 -5 -4 -39 -26 -75 -49 -36 -22 -91 -60 -123 -84 -31
-24 -59 -44 -62 -44 -5 0 -10 -4 -145 -121 -216 -188 -397 -399 -548 -641
-110 -174 -215 -393 -276 -573 -15 -44 -30 -87 -33 -95 -9 -23 -10 -26 -48
-175 -14 -55 -28 -115 -31 -134 -3 -18 -7 -42 -9 -51 -2 -10 -7 -40 -11 -67
-3 -26 -8 -57 -10 -68 -19 -96 -26 -645 -11 -780 14 -126 18 -152 32 -230 8
-44 17 -91 20 -105 3 -14 7 -37 10 -52 3 -15 9 -38 15 -52 5 -15 8 -26 5 -26
-2 0 0 -12 5 -27 5 -16 21 -68 36 -118 73 -243 178 -480 302 -680 75 -122 154
-236 190 -274 7 -8 21 -25 30 -40 42 -64 277 -301 388 -391 11 -9 37 -29 59
-45 22 -17 45 -35 51 -40 6 -6 37 -28 70 -50 32 -22 60 -43 62 -47 2 -5 9 -8
15 -8 6 0 18 -6 26 -14 22 -20 229 -125 331 -169 124 -52 316 -116 398 -132 9
-1 35 -8 57 -13 22 -6 54 -13 70 -16 17 -3 39 -7 50 -9 11 -3 46 -8 78 -12 33
-3 80 -9 105 -13 64 -8 518 -8 567 1 22 3 63 9 90 13 28 3 59 8 70 10 11 3 36
7 55 10 147 24 401 102 564 174 25 12 47 20 48 20 2 -1 45 22 96 49 51 28 97
51 103 51 5 0 9 4 9 8 0 5 12 14 28 21 53 24 230 151 332 239 90 77 247 235
303 304 25 32 48 54 50 50 3 -4 5 -102 4 -217 0 -116 3 -232 7 -258 34 -226
199 -400 421 -443 51 -10 168 -11 210 -1 22 5 48 10 58 12 38 8 61 18 118 52
108 63 194 168 240 293 l24 65 0 1340 c0 737 -3 1367 -7 1400 -5 33 -10 78
-12 100 -8 64 -14 107 -21 145 -4 19 -8 44 -10 55 -1 11 -5 31 -9 45 -3 14 -8
36 -11 50 -17 85 -65 260 -84 305 -4 11 -27 70 -51 130 -58 149 -166 367 -222
447 -10 14 -18 29 -18 32 0 15 -152 228 -245 342 -56 68 -280 292 -340 339
-27 22 -53 43 -56 48 -28 38 -409 282 -481 308 -21 7 -38 16 -38 20 0 4 -10
11 -22 14 -13 4 -56 22 -96 41 -70 33 -340 128 -392 138 -14 3 -54 12 -90 21
-65 17 -76 19 -140 30 -19 3 -44 8 -56 10 -11 2 -45 7 -75 11 -30 3 -65 8 -79
11 -31 7 -605 15 -611 9z m529 -960 c6 -4 26 -8 44 -10 195 -19 496 -133 698
-264 47 -31 87 -58 90 -61 3 -4 23 -19 45 -36 84 -62 295 -271 295 -292 0 -7
4 -13 8 -13 5 0 24 -21 42 -47 19 -27 37 -50 40 -53 18 -15 127 -213 161 -292
36 -82 84 -209 94 -248 24 -90 54 -223 58 -255 3 -22 8 -47 11 -55 25 -70 25
-538 1 -654 -2 -12 -7 -39 -9 -61 -11 -86 -67 -289 -108 -395 -179 -463 -515
-833 -939 -1034 -109 -52 -269 -111 -333 -122 -16 -3 -32 -7 -35 -9 -4 -2 -25
-6 -47 -9 -22 -4 -49 -8 -60 -10 -81 -16 -153 -20 -319 -20 -104 0 -212 3
-240 7 -69 10 -153 25 -197 36 -21 5 -38 7 -38 5 0 -3 -13 2 -30 11 -16 9 -30
13 -30 11 0 -7 -172 54 -187 66 -7 6 -13 8 -13 5 0 -20 -319 167 -409 240 -85
69 -213 191 -261 250 -163 198 -292 433 -370 673 -45 139 -49 152 -55 185 -43
237 -48 280 -48 480 0 190 7 275 38 440 14 80 68 265 96 330 4 11 18 45 31 75
19 48 58 126 117 235 14 26 80 129 103 160 4 6 35 44 70 85 197 237 409 389
753 540 29 12 175 58 205 64 14 3 36 7 50 10 14 3 36 8 50 11 58 12 78 16 130
21 30 4 56 8 58 9 7 6 429 -2 440 -9z"/>
<path d="M1636 6185 c-111 -38 -170 -157 -136 -274 5 -19 13 -37 17 -40 5 -3
16 -22 25 -41 10 -19 32 -62 51 -95 33 -59 208 -372 262 -470 16 -27 67 -120
115 -205 125 -224 135 -241 217 -390 42 -74 87 -155 101 -180 103 -184 106
-190 149 -267 20 -37 61 -110 90 -162 29 -51 53 -95 53 -98 0 -14 77 -123 104
-146 56 -50 131 -80 199 -81 76 0 104 6 163 36 58 29 108 80 150 154 18 33 42
77 55 99 12 22 28 51 36 65 8 14 28 48 44 75 16 28 35 61 42 75 6 14 14 27 17
30 3 3 13 21 24 40 10 19 67 121 126 225 59 105 116 206 126 225 11 19 21 37
24 40 3 3 14 23 25 45 11 22 23 42 26 45 4 3 19 30 35 60 15 30 35 66 45 80
33 50 199 350 199 360 0 5 5 10 10 10 6 0 10 4 10 8 0 5 32 64 70 131 39 68
70 127 70 132 0 5 4 9 8 9 4 0 13 12 19 28 12 28 54 103 63 112 3 3 18 31 33
62 58 120 15 252 -98 299 -43 19 -2517 22 -2569 4z m1463 -479 c49 -18 122
-66 163 -110 121 -126 148 -324 66 -486 -32 -63 -123 -151 -190 -183 -65 -32
-86 -38 -148 -42 -25 -2 -46 -4 -47 -5 -10 -8 -46 -4 -122 14 -46 11 -111 48
-161 93 -184 165 -190 447 -14 620 122 119 291 155 453 99z"/>
<path d="M9357 8244 c-2 -2 -38 -6 -80 -9 -43 -4 -88 -8 -100 -11 -12 -2 -38
-7 -57 -10 -53 -8 -324 -75 -335 -83 -5 -4 -30 -14 -55 -21 -67 -21 -297 -124
-310 -139 -3 -3 -18 -13 -35 -21 -16 -8 -52 -28 -80 -45 -27 -17 -58 -34 -67
-38 -10 -3 -18 -11 -18 -17 0 -5 -5 -10 -11 -10 -28 0 -257 -188 -370 -302
-31 -32 -58 -58 -60 -58 -3 0 -5 73 -5 163 -2 145 -4 169 -27 235 -47 137
-106 202 -230 256 -106 47 -250 63 -381 42 -55 -9 -182 -61 -208 -86 -12 -11
-26 -20 -32 -20 -32 0 -139 -174 -153 -251 -10 -56 -11 -4929 0 -4974 25 -113
103 -240 172 -282 65 -40 152 -74 228 -89 73 -14 255 -2 312 21 108 43 173 85
212 137 27 36 85 148 76 148 -3 0 0 7 7 15 7 8 9 15 6 15 -4 0 -1 10 6 23 9
17 12 390 14 1677 2 1487 4 1706 17 1760 2 8 7 31 11 50 19 87 117 316 145
340 4 3 18 23 33 46 63 98 219 236 373 331 88 54 235 128 275 137 3 1 15 7 28
14 12 7 22 10 22 8 0 -3 20 3 45 14 25 11 45 17 45 15 0 -3 11 0 24 5 26 10
147 35 211 45 23 3 50 7 62 9 147 29 695 28 813 0 14 -3 40 -7 58 -8 17 -2 35
-5 38 -9 3 -3 12 -3 20 0 8 3 14 1 14 -3 0 -5 10 -9 23 -10 12 0 40 -4 62 -8
96 -18 134 -22 193 -19 71 3 170 26 221 53 33 16 107 82 140 124 19 25 50 110
59 160 11 64 8 191 -5 217 -6 13 -17 39 -25 57 -7 17 -16 32 -20 32 -5 0 -8 5
-8 12 0 26 -142 147 -217 185 -102 52 -299 124 -383 139 -14 2 -47 9 -75 14
-27 5 -68 13 -90 16 -39 7 -522 13 -528 8z"/>
</g>
</svg>
